<svg width="1200" height="420" viewBox="0 0 1200 420" fill="none" xmlns="http://www.w3.org/2000/svg">
  <defs>
    <linearGradient id="bg" x1="0" y1="0" x2="1200" y2="420" gradientUnits="userSpaceOnUse">
      <stop stop-color="#0B1220"/>
      <stop offset="1" stop-color="#151B2F"/>
    </linearGradient>
    <linearGradient id="accent" x1="135" y1="70" x2="360" y2="305" gradientUnits="userSpaceOnUse">
      <stop stop-color="#F97316"/>
      <stop offset="1" stop-color="#DC2626"/>
    </linearGradient>
    <linearGradient id="textAccent" x1="620" y1="120" x2="1020" y2="240" gradientUnits="userSpaceOnUse">
      <stop stop-color="#F8FAFC"/>
      <stop offset="1" stop-color="#FCA5A5"/>
    </linearGradient>
    <filter id="blur" x="-120" y="-120" width="1440" height="660" filterUnits="userSpaceOnUse" color-interpolation-filters="sRGB">
      <feGaussianBlur stdDeviation="48"/>
    </filter>
  </defs>

  <rect width="1200" height="420" rx="28" fill="url(#bg)"/>
  <rect x="18" y="18" width="1164" height="384" rx="22" stroke="#FFFFFF" stroke-opacity="0.08"/>

  <g filter="url(#blur)" opacity="0.9">
    <circle cx="220" cy="110" r="82" fill="#DC2626"/>
    <circle cx="985" cy="320" r="78" fill="#F97316"/>
    <circle cx="910" cy="105" r="54" fill="#2563EB"/>
  </g>

  <g transform="translate(95 78)">
    <rect x="14" y="26" width="150" height="220" rx="18" fill="#F8FAFC" transform="rotate(-12 14 26)"/>
    <rect x="46" y="12" width="150" height="220" rx="18" fill="#FFF7ED" stroke="#FDBA74" stroke-width="3" transform="rotate(-4 46 12)"/>
    <rect x="84" y="26" width="150" height="220" rx="18" fill="#FFFFFF" stroke="#FCA5A5" stroke-width="3" transform="rotate(8 84 26)"/>

    <rect x="62" y="46" width="118" height="172" rx="18" fill="url(#accent)"/>
    <text x="121" y="118" text-anchor="middle" font-family="Segoe UI, Arial, sans-serif" font-size="54" font-weight="800" fill="#FFF7ED">7</text>
    <text x="121" y="164" text-anchor="middle" font-family="Segoe UI, Arial, sans-serif" font-size="21" font-weight="700" fill="#FFE4E6">LUCKY</text>
    <text x="121" y="192" text-anchor="middle" font-family="Segoe UI, Arial, sans-serif" font-size="21" font-weight="700" fill="#FFE4E6">SEVEN</text>
  </g>

  <g transform="translate(470 92)">
    <text x="0" y="58" font-family="Segoe UI, Arial, sans-serif" font-size="22" font-weight="700" letter-spacing="4" fill="#F97316">
      REAL-TIME MULTIPLAYER CARD GAME
    </text>
    <text x="0" y="150" font-family="Segoe UI, Arial, sans-serif" font-size="92" font-weight="900" letter-spacing="1.5" fill="url(#textAccent)">
      LUCKY SEVEN
    </text>
    <text x="0" y="202" font-family="Segoe UI, Arial, sans-serif" font-size="30" font-weight="600" fill="#CBD5E1">
      React + TypeScript + Supabase
    </text>
    <text x="0" y="248" font-family="Segoe UI, Arial, sans-serif" font-size="24" font-weight="500" fill="#94A3B8">
      Draw. Swap. Lock. Outsmart the table.
    </text>

    <g transform="translate(0 284)">
      <rect width="182" height="42" rx="21" fill="#991B1B"/>
      <text x="91" y="27" text-anchor="middle" font-family="Segoe UI, Arial, sans-serif" font-size="17" font-weight="700" fill="#FFF7ED">
        2-8 PLAYERS
      </text>

      <rect x="198" width="224" height="42" rx="21" fill="#1D4ED8"/>
      <text x="310" y="27" text-anchor="middle" font-family="Segoe UI, Arial, sans-serif" font-size="17" font-weight="700" fill="#EFF6FF">
        LIVE TURN SYNC
      </text>

      <rect x="438" width="256" height="42" rx="21" fill="#065F46"/>
      <text x="566" y="27" text-anchor="middle" font-family="Segoe UI, Arial, sans-serif" font-size="17" font-weight="700" fill="#ECFDF5">
        POWER CARDS + CHAT
      </text>
    </g>
  </g>
</svg>
